<svg xmlns="http://www.w3.org/2000/svg" viewBox="0 0 1600 1000" fill="none">
  <defs>
    <linearGradient id="bg" x1="800" y1="0" x2="800" y2="1000" gradientUnits="userSpaceOnUse">
      <stop stop-color="#F7EEE4"/>
      <stop offset=".58" stop-color="#EAD9C9"/>
      <stop offset="1" stop-color="#CDB59B"/>
    </linearGradient>
    <filter id="blur" x="-20%" y="-20%" width="140%" height="140%">
      <feGaussianBlur stdDeviation="24"/>
    </filter>
  </defs>

  <rect width="1600" height="1000" fill="url(#bg)"/>
  <g filter="url(#blur)" opacity=".7">
    <ellipse cx="260" cy="230" rx="220" ry="130" fill="#E7D0C4"/>
    <ellipse cx="1320" cy="180" rx="210" ry="120" fill="#E8E6D8"/>
    <ellipse cx="1220" cy="780" rx="320" ry="160" fill="#C2C9B5"/>
  </g>

  <path d="M0 720C146 682 291 667 456 700C625 734 755 796 928 779C1112 761 1262 668 1422 668C1491 668 1551 680 1600 700V1000H0V720Z" fill="#C5B097" opacity=".5"/>
  <path d="M0 794C178 738 345 763 511 822C662 876 796 929 960 916C1117 904 1256 835 1418 818C1488 811 1549 817 1600 832V1000H0V794Z" fill="#D4C0A9" opacity=".7"/>

  <g transform="translate(430 260)">
    <rect x="110" y="150" width="510" height="280" rx="24" fill="#F7F0E8" opacity=".92"/>
    <path d="M110 204H620" stroke="#D8C6B4" stroke-width="4"/>
    <path d="M194 150V430" stroke="#D2BFA9" stroke-width="8"/>
    <path d="M278 150V430" stroke="#D2BFA9" stroke-width="8"/>
    <path d="M362 150V430" stroke="#D2BFA9" stroke-width="8"/>
    <path d="M446 150V430" stroke="#D2BFA9" stroke-width="8"/>
    <path d="M530 150V430" stroke="#D2BFA9" stroke-width="8"/>
    <path d="M110 150L365 20L620 150" stroke="#B28D72" stroke-width="18" stroke-linecap="round" stroke-linejoin="round"/>
    <path d="M126 150L365 41L604 150" stroke="#E7D6C9" stroke-width="28" opacity=".5" stroke-linecap="round" stroke-linejoin="round"/>
  </g>

  <g opacity=".72">
    <path d="M260 920C304 770 336 644 380 542C415 460 470 392 552 320" stroke="#A8B39E" stroke-width="20" stroke-linecap="round"/>
    <path d="M1324 920C1280 786 1240 664 1192 558C1151 469 1097 401 1020 338" stroke="#C8AE92" stroke-width="20" stroke-linecap="round"/>
    <path d="M382 641C430 594 500 571 581 572" stroke="#DCC2B4" stroke-width="18" stroke-linecap="round"/>
    <path d="M1200 649C1158 597 1090 574 1017 575" stroke="#CBD2C1" stroke-width="18" stroke-linecap="round"/>
  </g>
</svg>
