<svg xmlns="http://www.w3.org/2000/svg" viewBox="-14 -68 88 85" aria-hidden="true">
  <style>
    .sig-path {
      fill: #77614e;
      fill-opacity: 0;
      stroke: #77614e;
      stroke-width: 1.3;
      stroke-linecap: round;
      stroke-linejoin: round;
      paint-order: stroke fill markers;
      stroke-dasharray: 1;
      stroke-dashoffset: 1;
      vector-effect: non-scaling-stroke;
      animation: draw 0.85s cubic-bezier(0.2, 0.9, 0.2, 1) 1.7s forwards, fill 0.45s ease 2.28s forwards;
    }
    @keyframes draw { to { stroke-dashoffset: 0; } }
    @keyframes fill { to { fill-opacity: 1; stroke-opacity: 0.24; } }
  </style>
  <path class="sig-path" pathLength="1" d="M17.9 2.9L17.9 2.9Q11.1 2.9 6.5 0.2L6.5 0.2Q0.8-2.9 0.8-9.3L0.8-9.3Q0.8-18.0 9.7-24.4L9.7-24.4Q15.2-28.4 26.3-32.7L26.3-32.7Q20.8-32.6 18.0-34.4Q15.3-36.3 15.3-39.0L15.3-39.0Q15.3-41.8 17.9-44.8L17.9-44.8Q20.4-47.5 24.7-49.5Q29.0-51.5 34.1-52.5Q39.2-53.6 43.9-53.6L43.9-53.6Q48.2-53.6 51.8-52.0L51.8-52.0Q56.4-50.0 56.4-46.3L56.4-46.3Q56.4-45.5 56.3-44.8Q56.2-44.1 55.9-43.6L55.9-43.6Q55.1-41.9 53.0-41.9L53.0-41.9Q52.6-41.9 52.6-42.5L52.6-42.5Q52.6-42.7 52.7-43.0Q52.9-43.2 53.1-43.9L53.1-43.9Q53.7-45.3 53.7-46.2L53.7-46.2Q53.7-49.1 49.5-50.6L49.5-50.6Q46.5-51.6 42.7-51.6L42.7-51.6Q39.8-51.6 36.0-50.8Q32.1-49.9 28.4-48.2Q24.8-46.5 22.3-44Q19.8-41.5 19.8-38.1L19.8-38.1Q19.8-34.4 26.4-34.4L26.4-34.4Q28.5-34.4 31.9-35.1L31.9-35.1Q33.8-35.5 35.1-35.7Q36.4-35.9 36.9-35.9L36.9-35.9Q38.4-35.9 38.4-35.0L38.4-35.0Q38.4-34.2 36.3-33.7L36.3-33.7L29.8-31.7Q23.0-29.6 17.5-25.5Q12.0-21.3 8.8-16.5Q5.6-11.7 5.6-7.6L5.6-7.6Q5.6-4.1 8.5-1.7Q11.4 0.7 17.9 0.7L17.9 0.7Q28.3 0.7 38.3-4.2L38.3-4.2Q50.4-10.1 50.4-19.3L50.4-19.3Q50.4-21.6 49.6-23.8L49.6-23.8Q46.9-23.3 44.4-22.8Q41.9-22.3 40.4-22L40.4-22Q34.2-20.7 31.4-18.6L31.4-18.6Q27.3-15.8 27.3-11L27.3-11Q27.3-10.3 26.8-10.3L26.8-10.3Q26.0-10.3 26.0-11.2L26.0-11.2Q26.0-15.4 26.8-18.4Q27.6-21.4 30.8-23.1L30.8-23.1Q33.7-24.5 44.1-26.2L44.1-26.2Q48.6-26.9 52.4-28.1Q56.1-29.1 57.5-30.6L57.5-30.6Q58.5-31.6 58.5-32.3L58.5-32.3Q58.5-33.1 57.6-33.7L57.6-33.7Q56.6-34.3 56.6-34.6L56.6-34.6Q56.6-35.2 57.1-35.2L57.1-35.2Q58.3-35.2 59.1-33.9L59.1-33.9Q60.1-32.5 60.1-31.2L60.1-31.2Q60.1-26.9 51.3-24.3L51.3-24.3Q52.6-21.0 52.6-17.9L52.6-17.9Q52.6-8.0 39.6-2.0L39.6-2.0Q29.0 2.9 17.9 2.9Z"/>
</svg>
