<svg xmlns="http://www.w3.org/2000/svg" viewBox="-15 -93 328 168" aria-hidden="true">
  <style>
    .sig-path {
      fill: #77614e;
      fill-opacity: 0;
      stroke: #77614e;
      stroke-width: 1.3;
      stroke-linecap: round;
      stroke-linejoin: round;
      paint-order: stroke fill markers;
      stroke-dasharray: 1;
      stroke-dashoffset: 1;
      vector-effect: non-scaling-stroke;
      animation: draw 1.9s cubic-bezier(0.2, 0.9, 0.2, 1) 0.35s forwards, fill 0.45s ease 1.75s forwards;
    }
    @keyframes draw { to { stroke-dashoffset: 0; } }
    @keyframes fill { to { fill-opacity: 1; stroke-opacity: 0.24; } }
  </style>
  <path class="sig-path" pathLength="1" d="M78.5 11.3L78.5 11.3Q69.8 11.3 54.4-5.7L54.4-5.7Q49.4-11.5 44.5-17.8Q39.8-24 35.5-30.6L35.5-30.6Q33.9-30.8 32.4-31.0Q30.9-31.3 29.5-31.6L29.5-31.6Q14.3-2.7 14.3 6.5L14.3 6.5Q14.3 7.2 14.4 7.6L14.4 7.6L14.4 8.7Q14.4 10.8 12.9 10.8L12.9 10.8Q10.5 10.8 10.5 6.8L10.5 6.8Q10.5-3.9 24.4-33.3L24.4-33.3Q17.3-36.8 17.3-42.6L17.3-42.6Q17.3-46.0 19.6-48.6L19.6-48.6Q22.2-51.3 25.3-51.3L25.3-51.3Q28.9-51.3 31.6-47.7L31.6-47.7Q33.3-50.7 35.8-55.1Q38.3-59.5 41.5-65.1L41.5-65.1Q44.1-68.3 49.4-68.3L49.4-68.3Q51.4-68.3 51.4-67.2L51.4-67.2Q51.4-66.9 51-66.1L51-66.1Q46.6-60.1 42.7-54.1Q38.7-48 35.3-41.7L35.3-41.7L40.2-32.9Q46.8-33.3 53.3-34.9Q59.8-36.6 65.4-39L65.4-39Q72.9-42.3 77.5-46.6Q82.0-50.9 83.8-55.8L83.8-55.8Q84.3-57 84.5-58.2Q84.6-59.4 84.6-60.4L84.6-60.4Q84.6-70.5 71.4-72.9L71.4-72.9Q62.3-74.7 50.7-74.7L50.7-74.7Q38.3-74.7 26.0-72.5Q13.8-70.3 1.8-66L1.8-66Q1.2-65.8 0.8-65.8Q0.4-65.7 0.1-65.7L0.1-65.7Q-0.9-65.7-0.9-66.6L-0.9-66.6Q-0.9-68.4 1.6-70.6L1.6-70.6Q3.8-72.8 5.8-73.3L5.8-73.3Q22.3-78.8 44.3-78.8L44.3-78.8Q59.8-78.8 74.3-75.6L74.3-75.6Q91.2-71.7 91.2-59.4L91.2-59.4Q91.2-55.8 89.1-51.3L89.1-51.3Q86.7-46.4 82.3-42.5Q77.8-38.7 71.8-36L71.8-36Q61.9-31.3 49.0-30.4L49.0-30.4Q47.5-30.3 45.4-30.2Q43.4-30.1 41.7-30.3L41.7-30.3Q44.7-25.5 49.0-19.9Q53.4-14.4 58.9-8.3L58.9-8.3Q73.0 7.3 79.6 7.3L79.6 7.3Q83.3 7.3 83.3 3.4L83.3 3.4Q83.3 2.9 83.2 2.2Q83.1 1.5 83.0 0.8L83.0 0.8Q82.5-0.9 82.5-1.5L82.5-1.5Q82.5-2.9 83.7-2.9L83.7-2.9Q86.3-2.9 86.3 3.1L86.3 3.1Q86.3 6.3 84 8.8L84 8.8Q81.8 11.3 78.5 11.3ZM25.3-35.3L25.3-35.3L28.9-42.4Q27.4-45.3 25.3-45.3L25.3-45.3Q22.1-45.3 22.1-40.9L22.1-40.9Q22.1-37.5 25.3-35.3ZM34.2-32.7L34.2-32.7L32.1-36.3L30.4-33.3Q31.2-33.1 32.2-33Q33.1-32.9 34.2-32.7ZM95.4 0.9L95.4 0.9Q90.4 0.9 86.7-1.9Q82.9-4.8 82.9-11.5L82.9-11.5Q82.9-15.6 84.8-20.3Q86.5-25.1 89.6-29.3Q92.7-33.4 96.4-36.1Q100.2-38.9 104.1-38.9L104.1-38.9Q105.6-38.9 106.7-37.8Q107.8-36.8 107.8-34.6L107.8-34.6Q107.8-30 100.8-23.4L100.8-23.4Q97.9-20.7 94.9-18.6Q91.8-16.5 89.3-15.6L89.3-15.6Q88.6-13.7 88.6-11.1L88.6-11.1Q88.6-7.6 90.3-4.8Q91.9-1.9 95.5-1.9L95.5-1.9Q100.0-1.9 103.8-4.5Q107.5-7.0 110.7-10.7Q113.8-14.4 116.3-17.6L116.3-17.6Q117.3-19.1 118.3-19.1L118.3-19.1Q118.9-19.1 118.9-18.4L118.9-18.4Q118.9-18.1 118.8-17.8Q118.6-17.4 118.5-17.1L118.5-17.1Q115.9-13.5 112.6-9.3Q109.3-5.1 105.1-2.1Q100.9 0.9 95.4 0.9ZM90.3-18.6L90.3-18.6Q94.2-20.3 98.4-24.4L98.4-24.4Q103.3-29.3 103.3-32.9L103.3-32.9Q103.3-34.6 101.5-34.6L101.5-34.6Q99.1-34.6 94.9-27.8L94.9-27.8Q91.2-22.1 90.3-18.6ZM87.4 60.9L87.4 60.9Q80.1 60.9 75.4 56.7L75.4 56.7Q70.5 52.4 70.5 45.4L70.5 45.4Q70.5 29.4 93.3 14.7L93.3 14.7Q112.6 2.3 130.8-0.6L130.8-0.6Q131.4-3.4 132.2-7.8Q133.0-12.2 134.3-17.8L134.3-17.8Q124.0 0 116.4 0L116.4 0Q111.8 0 111.8-5.1L111.8-5.1Q111.8-12.8 119.3-23.8L119.3-23.8Q126.6-34.8 133.8-37.4L133.8-37.4Q135.2-37.8 136.4-38.1Q137.7-38.4 138.8-38.4L138.8-38.4Q141.1-38.4 143.8-37.0L143.8-37.0Q145.0-36.4 145.9-35.6Q146.8-34.8 146.8-33.8L146.8-33.8Q146.8-33.1 145.5-32.7L145.5-32.7Q144.1-32.3 143.7-31.3L143.7-31.3L142.0-23.7Q141.3-19.9 139.9-14.2Q138.4-8.4 136.8-0.8L136.8-0.8L137.4-0.8Q145.3-0.8 145.3 2.7L145.3 2.7Q145.3 3.6 144.8 3.6L144.8 3.6Q144.8 3.6 143.5 2.9L143.5 2.9Q142.3 2.1 139.2 2.1L139.2 2.1Q138.4 2.1 137.7 2.1Q136.9 2.1 136.2 2.3L136.2 2.3Q133.3 13.5 129.8 22.3Q126.1 31.0 121.9 37.2L121.9 37.2Q105.8 60.9 87.4 60.9ZM118.9-4.5L118.9-4.5Q120.6-4.5 122.8-6.4Q125.1-8.3 127.5-11.4L127.5-11.4Q131.1-16.2 134.3-21.6Q137.4-27 139.8-33.3L139.8-33.3Q139.3-33.4 138.4-33.4L138.4-33.4Q132.3-33.4 126-25.8L126-25.8Q116.8-14.8 116.8-7.6L116.8-7.6Q116.8-4.5 118.9-4.5ZM88.0 58.8L88.0 58.8Q97.5 58.8 106.3 51L106.3 51Q113.4 45 119.1 35.3L119.1 35.3Q127.0 21.6 130.7 2.1L130.7 2.1Q120.9 3.6 107.1 10.7L107.1 10.7Q100.2 14.1 94.9 17.6Q89.7 21 86.1 24.4L86.1 24.4Q74.8 35.3 74.8 45.9L74.8 45.9Q74.8 51.8 78.4 55.2L78.4 55.2Q82.3 58.8 88.0 58.8ZM175.6 0.9L175.6 0.9Q167.1 0.9 167.1-9.9L167.1-9.9Q167.1-14.7 168.7-19.2Q170.2-23.7 172.3-27.4L172.3-27.4Q167.1-22.8 161.3-16.0Q155.5-9.2 150.0-0.8L150.0-0.8Q149.1 0.6 148.6 0.6L148.6 0.6Q147.3 0.6 147.3-2.1L147.3-2.1Q147.3-2.7 147.6-3.3L147.6-3.3Q149.2-7.3 150.9-12.7Q152.5-18 154.2-25.2L154.2-25.2Q154.5-26.7 154.8-28.2Q155.1-29.7 155.7-32.1L155.7-32.1Q156.0-33 157.8-34.2L157.8-34.2Q159.3-35.3 160.8-35.3L160.8-35.3Q161.8-35.3 161.8-34.4L161.8-34.4Q161.8-33.6 160.0-27.9Q158.2-22.2 154.8-11.5L154.8-11.5Q155.7-12.8 158.5-16.0Q161.4-19.2 166.0-24.3L166.0-24.3L175.3-34.5Q176.4-35.5 177.7-35.5L177.7-35.5Q181.2-35.5 181.2-32.1L181.2-32.1Q181.2-31.3 180.6-30.3L180.6-30.3Q172.2-16.5 172.2-8.4L172.2-8.4Q172.2-2.7 177.6-2.7L177.6-2.7Q181.5-2.7 186.6-7.0L186.6-7.0Q188.7-8.7 190.3-10.7Q191.8-12.8 193.6-15.1L193.6-15.1Q196.8-19.5 197.2-19.5L197.2-19.5Q197.7-19.5 197.7-18.6L197.7-18.6Q197.7-17.7 196.8-16.1L196.8-16.1Q186.6 0.9 175.6 0.9ZM208.8-38.3L208.8-38.3Q205.2-38.3 205.2-41.9L205.2-41.9Q205.2-43.6 206.5-45L206.5-45Q208.0-46.5 210.0-46.5L210.0-46.5Q213.6-46.5 213.6-42.9L213.6-42.9Q213.6-41.1 212.2-39.8L212.2-39.8Q210.7-38.3 208.8-38.3ZM200.1 2.5L200.1 2.5Q191.8 2.5 191.8-6.3L191.8-6.3Q191.8-10.5 194.8-18.6L194.8-18.6Q196.2-22.3 197.6-25.0Q199.0-27.6 200.5-29.8L200.5-29.8Q201.4-31.2 202.6-31.2L202.6-31.2Q203.8-31.2 205.0-30L205.0-30Q205.8-29.3 205.8-28.1L205.8-28.1Q205.8-27 205.2-25.9L205.2-25.9Q201.9-20.8 199.8-15.7Q197.7-10.5 197.7-6.5L197.7-6.5Q197.7-1.1 201.6-1.1L201.6-1.1Q203.7-1.1 206.4-2.2Q209.1-3.3 211.8-5.7L211.8-5.7Q213.6-7.3 215.6-9.4Q217.6-11.5 219.7-14.4L219.7-14.4Q223.6-19.2 223.6-19.2L223.6-19.2Q224.4-19.2 224.4-18L224.4-18Q224.4-16.8 223.3-15.6L223.3-15.6Q209.7 2.5 200.1 2.5ZM231.6 0.9L231.6 0.9Q226.6 0.9 222.9-1.9Q219.1-4.8 219.1-11.5L219.1-11.5Q219.1-15.6 220.9-20.3Q222.7-25.1 225.8-29.3Q228.9-33.4 232.6-36.1Q236.4-38.9 240.3-38.9L240.3-38.9Q241.8-38.9 242.9-37.8Q244.0-36.8 244.0-34.6L244.0-34.6Q244.0-30 237.0-23.4L237.0-23.4Q234.1-20.7 231.1-18.6Q228.0-16.5 225.4-15.6L225.4-15.6Q224.8-13.7 224.8-11.1L224.8-11.1Q224.8-7.6 226.5-4.8Q228.1-1.9 231.7-1.9L231.7-1.9Q236.2-1.9 240.0-4.5Q243.7-7.0 246.9-10.7Q250.0-14.4 252.4-17.6L252.4-17.6Q253.5-19.1 254.5-19.1L254.5-19.1Q255.1-19.1 255.1-18.4L255.1-18.4Q255.1-18.1 255.0-17.8Q254.8-17.4 254.7-17.1L254.7-17.1Q252.1-13.5 248.8-9.3Q245.5-5.1 241.3-2.1Q237.1 0.9 231.6 0.9ZM226.5-18.6L226.5-18.6Q230.4-20.3 234.6-24.4L234.6-24.4Q239.5-29.3 239.5-32.9L239.5-32.9Q239.5-34.6 237.7-34.6L237.7-34.6Q235.3-34.6 231.1-27.8L231.1-27.8Q227.4-22.1 226.5-18.6ZM275.2 2.4L275.2 2.4Q270.1 2.4 268.1-0.3Q266.1-3 266.1-7.2L266.1-7.2Q266.1-10.7 267.2-14.5Q268.3-18.3 270.0-21.6Q271.6-24.9 272.8-26.8L272.8-26.8Q272.4-26.7 271.9-26.6Q271.5-26.6 270.9-26.6L270.9-26.6Q268.8-26.6 266.2-28.1L266.2-28.1Q263.5-29.8 263.5-31.8L263.5-31.8Q262.6-29.7 261.1-27Q259.5-24.3 257.4-21.1L257.4-21.1Q251.8-12.4 250.0-12.4L250.0-12.4Q249.4-12.4 249.4-13.0L249.4-13.0Q249.4-13.7 250.3-14.8L250.3-14.8Q253.2-18.8 256.1-23.8Q259.0-28.9 262.0-35.3L262.0-35.3Q261.9-36 261.8-36.8Q261.7-37.5 261.7-38.5L261.7-38.5Q261.7-42 263.1-46.5L263.1-46.5Q264.7-52.2 267.1-52.2L267.1-52.2Q268.6-52.2 270.0-49.5L270.0-49.5Q270.4-48.4 270.7-47.5Q271.0-46.5 271.0-45.4L271.0-45.4Q271.0-41.9 264.9-34.5L264.9-34.5Q266.2-29.8 270.1-29.8L270.1-29.8Q273.0-29.8 275.4-32.7L275.4-32.7Q277.9-35.7 279.0-35.7L279.0-35.7Q280.3-35.7 281.4-34.6L281.4-34.6Q282.4-33.6 282.4-31.9L282.4-31.9Q282.4-32.1 280.6-29.3Q278.7-26.4 276.3-21.3L276.3-21.3Q273.9-16.2 272.9-12.6Q271.9-9 271.9-6.1L271.9-6.1Q271.9-0.9 276.9-0.9L276.9-0.9Q281.7-0.9 289.0-8.3L289.0-8.3Q291.4-10.8 294.6-14.7L294.6-14.7Q298.5-19.5 298.5-19.5L298.5-19.5Q299.1-19.5 299.1-18.6L299.1-18.6Q299.1-17.4 298.2-16.1L298.2-16.1Q296.1-12.8 293.6-9.5Q291.1-6.3 289.0-4.3L289.0-4.3Q282.1 2.4 275.2 2.4Z"/>
</svg>
