<svg xmlns="http://www.w3.org/2000/svg" viewBox="-12 -103 312 125" aria-hidden="true">
  <style>
    .sig-path {
      fill: #77614e;
      fill-opacity: 0;
      stroke: #77614e;
      stroke-width: 1.3;
      stroke-linecap: round;
      stroke-linejoin: round;
      paint-order: stroke fill markers;
      stroke-dasharray: 1;
      stroke-dashoffset: 1;
      vector-effect: non-scaling-stroke;
      animation: draw 1.75s cubic-bezier(0.2, 0.9, 0.2, 1) 2.15s forwards, fill 0.45s ease 3.3s forwards;
    }
    @keyframes draw { to { stroke-dashoffset: 0; } }
    @keyframes fill { to { fill-opacity: 1; stroke-opacity: 0.24; } }
  </style>
  <path class="sig-path" pathLength="1" d="M21 8.4L21 8.4Q12.9 8.4 7.9 4.8L7.9 4.8Q2.1 0.8 2.1-6.9L2.1-6.9Q2.1-15.6 9.4-22.9L9.4-22.9Q15.9-29.4 25.1-31.9L25.1-31.9Q32.5-34.0 44.5-35.1Q56.5-36.1 72.9-36L72.9-36Q77.1-40.9 79.8-44.2Q82.5-47.4 84.5-49.8Q86.4-52.2 88.3-54.5Q90.1-56.9 92.5-60.1L92.5-60.1L101.0-71.4Q101.7-72.1 102.3-72.1L102.3-72.1Q104.3-72.1 104.3-70.3L104.3-70.3Q104.3-70.2 104.0-69.3L104.0-69.3L94.6-56.9Q93.8-55.6 91.6-52.9Q89.5-50.3 87.1-46.9Q84.8-43.6 82.4-40.6Q80.1-37.6 78.8-35.9L78.8-35.9Q82.5-35.7 86.2-35.1Q89.8-34.5 93.5-33.8L93.5-33.8Q97.6-52.6 104.3-69.5L104.3-69.5Q105.3-72 106.6-75.1Q108-78.1 110.3-82.6L110.3-82.6Q110.7-83.7 114.3-85.8L114.3-85.8Q117.8-87.9 118.9-87.9L118.9-87.9Q120.3-87.9 120.3-86.5L120.3-86.5Q120.3-86.1 119.5-84.9L119.5-84.9Q106.6-63.4 98.4-32.4L98.4-32.4Q105.1-30.4 105.1-28.5L105.1-28.5Q105.1-27 103.5-27L103.5-27Q103.3-27 102.5-27.4Q101.5-27.8 100.8-27.9L100.8-27.9Q99.6-28.5 98.7-28.7Q97.8-28.9 97.5-29.1L97.5-29.1Q95.4-20.1 94.3-13.0Q93.1-5.8 93.1-0.6L93.1-0.6Q93.1 4.5 94.6 4.5L94.6 4.5Q96 4.5 98.3 2.7L98.3 2.7Q100.6 0.8 101.1 0.8L101.1 0.8Q102.5 0.8 102.5 2.4L102.5 2.4Q102.5 4.0 99.6 5.7L99.6 5.7Q96.8 7.5 94.6 7.5L94.6 7.5Q89.0 7.5 89.0-1.9L89.0-1.9Q89.0-6.8 89.8-13.8Q90.8-20.8 92.7-30L92.7-30Q89.0-30.6 84.5-30.8Q80.1-31.0 75-31.2L75-31.2Q72.8-28.3 69.9-25.1Q67.0-21.8 63.1-17.7L63.1-17.7Q58.2-12.3 54.9-9Q51.6-5.7 49.3-3.7Q46.9-1.6 44.7 0L44.7 0Q33.4 8.4 21 8.4ZM19.2 2.5L19.2 2.5Q30.4 2.5 41.5-5.0L41.5-5.0Q45-7.3 49.6-11.5Q54.1-15.6 59.4-21.1L59.4-21.1Q61.3-23.3 63.6-25.6Q65.8-27.9 68.7-31.2L68.7-31.2L64.5-31.2Q51.6-31.2 41.9-30.4Q32.1-29.5 25.5-27.8L25.5-27.8Q21.8-26.7 18.4-24.8Q15-22.8 12.4-20.4L12.4-20.4Q6.1-14.4 6.1-7.2L6.1-7.2Q6.1-2.5 10.3 0.3L10.3 0.3Q13.9 2.5 19.2 2.5ZM130.1 1.9L130.1 1.9Q122.0 1.9 120-7.8L120-7.8Q119.8-9.2 119.6-10.5Q119.4-11.8 119.4-13.2L119.4-13.2Q119.4-19.9 121.9-27Q124.3-34.0 128.0-40.8Q131.6-47.5 134.6-53.3L134.6-53.3Q137.4-58.5 140.9-63.7Q144.4-68.8 147.9-73.2Q151.3-77.5 153.8-80.3L153.8-80.3Q157.7-84.6 161.3-86.5Q164.8-88.3 167.7-88.3L167.7-88.3Q169.7-88.3 171.2-86.4L171.2-86.4Q172.8-84.3 172.8-82.3L172.8-82.3Q172.8-72 153.4-47.7L153.4-47.7Q145.8-38.1 138.8-30.4Q131.7-22.6 125.1-16.5L125.1-16.5Q125.0-15.3 124.9-14.0Q124.8-12.8 124.8-11.5L124.8-11.5Q124.8-6.5 126.5-3.8Q128.1-1.2 132.3-1.2L132.3-1.2Q136.5-1.2 142.1-6.1Q147.8-10.9 153.8-19.8L153.8-19.8Q154.2-20.6 154.8-20.7L154.8-20.7Q155.7-20.7 155.7-19.6L155.7-19.6Q155.7-18.9 155.4-18.4L155.4-18.4Q153.3-14.8 150.7-11.5Q148.1-8.3 144.8-5.3L144.8-5.3Q141-1.9 137.3 0Q133.7 1.9 130.1 1.9ZM125.4-19.8L125.4-19.8Q129.6-23.4 135.4-30.2Q141.2-37.0 147.6-46.2L147.6-46.2Q162.2-66.3 165-75.3L165-75.3Q166.3-79.6 166.3-81.8L166.3-81.8Q166.3-84.6 164.4-84.6L164.4-84.6Q160.1-84.6 153.8-76.2L153.8-76.2Q150.2-71.4 145.3-64.0Q140.6-56.5 136.1-47.9L136.1-47.9Q130.8-37.8 128.6-31.2Q126.5-24.6 125.4-19.8ZM165.8-38.3L165.8-38.3Q162.2-38.3 162.2-41.9L162.2-41.9Q162.2-43.6 163.5-45L163.5-45Q165-46.5 167.0-46.5L167.0-46.5Q170.6-46.5 170.6-42.9L170.6-42.9Q170.6-41.1 169.2-39.8L169.2-39.8Q167.7-38.3 165.8-38.3ZM157.1 2.5L157.1 2.5Q148.8 2.5 148.8-6.3L148.8-6.3Q148.8-10.5 151.8-18.6L151.8-18.6Q153.2-22.3 154.6-25.0Q156-27.6 157.5-29.8L157.5-29.8Q158.4-31.2 159.6-31.2L159.6-31.2Q160.8-31.2 162-30L162-30Q162.8-29.3 162.8-28.1L162.8-28.1Q162.8-27 162.2-25.9L162.2-25.9Q158.8-20.8 156.8-15.7Q154.7-10.5 154.7-6.5L154.7-6.5Q154.7-1.1 158.6-1.1L158.6-1.1Q160.7-1.1 163.3-2.2Q166.1-3.3 168.8-5.7L168.8-5.7Q170.6-7.3 172.6-9.4Q174.6-11.5 176.7-14.4L176.7-14.4Q180.6-19.2 180.6-19.2L180.6-19.2Q181.3-19.2 181.3-18L181.3-18Q181.3-16.8 180.3-15.6L180.3-15.6Q166.7 2.5 157.1 2.5ZM203.6 0.8L203.6 0.8Q199.7 0.8 195.9-0.4Q192.2-1.6 188.3-1.6L188.3-1.6Q185.8-1.6 183.7-1.3Q181.5-0.9 179.1-0.4L179.1-0.4Q178.5-0.3 178.1-0.8L178.1-0.8Q177.3-1.1 177.3-1.8L177.3-1.8Q177.3-2.7 178.3-2.9L178.3-2.9Q180.8-3.1 182.8-4.2Q184.8-5.3 187.1-6L187.1-6Q191.8-8.8 195.7-12.8Q199.5-16.6 203.3-20.9Q207-25.2 211.3-28.8L211.3-28.8Q209.1-29.1 205.3-29.9Q201.4-30.8 198.4-30.8L198.4-30.8Q195.3-30.8 191.8-27.8Q188.3-24.9 184.8-20.7Q181.3-16.5 178.3-12.3L178.3-12.3Q177.9-11.5 177.3-11.5L177.3-11.5Q176.6-11.5 176.6-12.6L176.6-12.6Q176.6-14.1 177.8-15.4L177.8-15.4Q179.7-18 182.2-21.4Q184.7-24.8 187.6-28.1Q190.5-31.3 193.7-33.5Q196.9-35.7 200.3-35.7L200.3-35.7Q202.7-35.7 205.1-34.8Q207.6-33.9 209.8-33Q211.9-32.1 213-32.1L213-32.1Q215.7-32.1 217.7-33.9L217.7-33.9Q218.3-34.5 219-34.5L219-34.5Q220.1-34.5 220.3-33.1Q220.7-31.8 219.9-31.5L219.9-31.5Q213.9-28.8 209.5-24.4Q205.1-20.1 201.1-15.4Q197.1-10.7 192-6.6L192-6.6Q195.4-6.3 198.7-5.0Q201.9-3.8 205.2-3.8L205.2-3.8Q208.9-3.8 212.3-6.1Q215.7-8.5 218.6-11.8Q221.4-15.1 223.1-17.8L223.1-17.8Q223.7-18.8 224.3-18.8L224.3-18.8Q224.8-18.8 225.1-17.9Q225.3-17.1 225-16.6L225-16.6Q222.9-13.7 219.4-9.5Q216-5.4 211.9-2.3Q207.8 0.8 203.6 0.8ZM232.2 0.9L232.2 0.9Q227.3 0.9 223.5-1.9Q219.8-4.8 219.8-11.5L219.8-11.5Q219.8-15.6 221.6-20.3Q223.3-25.1 226.4-29.3Q229.5-33.4 233.3-36.1Q237-38.9 240.9-38.9L240.9-38.9Q242.4-38.9 243.5-37.8Q244.7-36.8 244.7-34.6L244.7-34.6Q244.7-30 237.6-23.4L237.6-23.4Q234.8-20.7 231.7-18.6Q228.6-16.5 226.1-15.6L226.1-15.6Q225.5-13.7 225.5-11.1L225.5-11.1Q225.5-7.6 227.1-4.8Q228.8-1.9 232.3-1.9L232.3-1.9Q236.8-1.9 240.6-4.5Q244.3-7.0 247.5-10.7Q250.7-14.4 253.1-17.6L253.1-17.6Q254.1-19.1 255.2-19.1L255.2-19.1Q255.8-19.1 255.8-18.4L255.8-18.4Q255.8-18.1 255.6-17.8Q255.4-17.4 255.3-17.1L255.3-17.1Q252.8-13.5 249.4-9.3Q246.2-5.1 242.0-2.1Q237.8 0.9 232.2 0.9ZM227.1-18.6L227.1-18.6Q231-20.3 235.2-24.4L235.2-24.4Q240.2-29.3 240.2-32.9L240.2-32.9Q240.2-34.6 238.3-34.6L238.3-34.6Q236.0-34.6 231.8-27.8L231.8-27.8Q228-22.1 227.1-18.6ZM262.2 0.9L262.2 0.9Q257.3 0.9 253.5-1.9Q249.8-4.8 249.8-11.5L249.8-11.5Q249.8-15.6 251.6-20.3Q253.3-25.1 256.4-29.3Q259.5-33.4 263.3-36.1Q267-38.9 270.9-38.9L270.9-38.9Q272.4-38.9 273.5-37.8Q274.6-36.8 274.6-34.6L274.6-34.6Q274.6-30 267.6-23.4L267.6-23.4Q264.8-20.7 261.7-18.6Q258.6-16.5 256.1-15.6L256.1-15.6Q255.5-13.7 255.5-11.1L255.5-11.1Q255.5-7.6 257.1-4.8Q258.8-1.9 262.4-1.9L262.4-1.9Q266.9-1.9 270.6-4.5Q274.4-7.0 277.5-10.7Q280.6-14.4 283.1-17.6L283.1-17.6Q284.1-19.1 285.1-19.1L285.1-19.1Q285.8-19.1 285.8-18.4L285.8-18.4Q285.8-18.1 285.6-17.8Q285.4-17.4 285.3-17.1L285.3-17.1Q282.8-13.5 279.4-9.3Q276.1-5.1 271.9-2.1Q267.8 0.9 262.2 0.9ZM257.1-18.6L257.1-18.6Q261-20.3 265.2-24.4L265.2-24.4Q270.1-29.3 270.1-32.9L270.1-32.9Q270.1-34.6 268.4-34.6L268.4-34.6Q265.9-34.6 261.8-27.8L261.8-27.8Q258-22.1 257.1-18.6Z"/>
</svg>
